<?xml version="1.0" encoding="UTF-8"?>
<svg id="CardLEgendary_Kopie" data-name="CardLEgendary Kopie" xmlns="http://www.w3.org/2000/svg" viewBox="0 0 363 488">
  <defs>
    <style>
      .cls-1 {
        fill: #000;
        stroke-width: 0px;
      }
    </style>
  </defs>
  <path class="cls-1" d="M-7-9.41v506.82h377V-9.41H-7ZM347.92,387.44l-338.58,9.91c3.15-22.1,3.04-44.56,2.92-66.9-.1-18.68.41-32.85-.47-86.86-1.06-64.65-1.59-96.97-2.1-100.09-3.36-20.37-4.44-72.23-2.15-102.86.55-7.42-7.48-21.67,1.83-30.51,4.86-6.47,17-4.94,20.28-4.61,14.49,1.45,17.47,1.56,60.3,1,38.06-.5,61.85-2.21,68.34-1h0c67.34,3.59,166.64-.36,179.12-1.3,1.11-.08,5.53-.52,8.35,2.17,2.15,2.05,2.42,5.34,2.54,8.31,2.54,60.43,5.08,120.95,2.35,181.37-.83,18.36-2.15,36.72-1.88,55.09.45,30.13,2.7,29.89,3.12,53.7.51,28.34-2.23,58.96-3.98,82.57Z"/>
</svg>