<?xml version="1.0" encoding="UTF-8"?>
<svg id="CardLEgendary_Kopie" data-name="CardLEgendary Kopie" xmlns="http://www.w3.org/2000/svg" viewBox="0 0 363 488">
  <defs>
    <style>
      .cls-1 {
        fill: #000;
        stroke-width: 0px;
      }
    </style>
  </defs>
  <path class="cls-1" d="M7.53,40.64c-2.28,30.63-1.21,82.49,2.15,102.86.51,3.12,1.04,35.45,2.1,100.09.88,54.01.37,68.18.47,86.86.12,22.34.23,44.79-2.92,66.9l338.58-9.91c1.74-23.61,4.48-54.23,3.98-82.57-.42-23.81-2.67-23.57-3.12-53.7-.27-18.38,1.04-36.73,1.88-55.09,2.74-60.42.2-120.94-2.35-181.37-.12-2.97-.39-6.26-2.54-8.31-2.82-2.69-7.24-2.25-8.35-2.17-12.48.94-111.78,4.89-179.12,1.3h0c-6.5-1.2-30.28.51-68.34,1-42.84.56-45.82.45-60.3-1-3.29-.33-15.42-1.86-20.28,4.61-9.31,8.84-1.27,23.09-1.83,30.51Z"/>
</svg>